<svg width="16" height="15" viewBox="0 0 16 15" fill="none" xmlns="http://www.w3.org/2000/svg">
<path d="M14 8.74964V13.9996C14 14.1985 13.921 14.3893 13.7803 14.53C13.6397 14.6706 13.4489 14.7496 13.25 14.7496H2.75C2.55109 14.7496 2.36032 14.6706 2.21967 14.53C2.07902 14.3893 2 14.1985 2 13.9996V8.74964H14ZM9.875 0.499637C10.318 0.499485 10.7538 0.611443 11.1419 0.825084C11.5299 1.03872 11.8576 1.3471 12.0944 1.72149C12.3312 2.09587 12.4694 2.5241 12.4961 2.96628C12.5228 3.40846 12.4372 3.85021 12.2473 4.25039L14.75 4.24964C14.9489 4.24964 15.1397 4.32865 15.2803 4.46931C15.421 4.60996 15.5 4.80072 15.5 4.99964V7.24964C15.5 7.44855 15.421 7.63931 15.2803 7.77997C15.1397 7.92062 14.9489 7.99964 14.75 7.99964H1.25C1.05109 7.99964 0.860322 7.92062 0.71967 7.77997C0.579018 7.63931 0.5 7.44855 0.5 7.24964V4.99964C0.5 4.80072 0.579018 4.60996 0.71967 4.46931C0.860322 4.32865 1.05109 4.24964 1.25 4.24964L3.75275 4.25039C3.48557 3.68914 3.42622 3.05129 3.58528 2.45039C3.74433 1.84948 4.11147 1.32452 4.62132 0.968951C5.13118 0.613383 5.75068 0.450283 6.36952 0.508687C6.98837 0.567092 7.56642 0.84321 8.00075 1.28789C8.24453 1.03778 8.53602 0.839145 8.85796 0.703747C9.1799 0.568348 9.52575 0.498941 9.875 0.499637V0.499637ZM6.125 1.99964C5.83609 1.99978 5.5583 2.11107 5.34921 2.31044C5.14012 2.50982 5.01574 2.78199 5.00186 3.07057C4.98797 3.35915 5.08564 3.64201 5.27463 3.86054C5.46362 4.07907 5.72944 4.21651 6.017 4.24439L6.125 4.24964H7.25V3.12464C7.24999 2.84497 7.14581 2.57534 6.95779 2.36832C6.76976 2.1613 6.51137 2.03173 6.233 2.00489L6.125 1.99964ZM9.875 1.99964L9.767 2.00489C9.50703 2.02979 9.26383 2.14437 9.07909 2.32897C8.89436 2.51357 8.7796 2.75669 8.7545 3.01664L8.75 3.12464V4.24964H9.875L9.983 4.24439C10.2613 4.21741 10.5195 4.08778 10.7074 3.88078C10.8953 3.67377 10.9994 3.40421 10.9994 3.12464C10.9994 2.84506 10.8953 2.5755 10.7074 2.3685C10.5195 2.16149 10.2613 2.03186 9.983 2.00489L9.875 1.99964Z" fill="#7D7D83"/>
</svg>
