<svg width="14" height="17" viewBox="0 0 14 17" fill="none" xmlns="http://www.w3.org/2000/svg">
<path d="M11.2132 4.476L12.3029 3.38625L13.3634 4.44675L12.2737 5.5365C13.3505 6.88438 13.8704 8.59341 13.7265 10.3126C13.5826 12.0318 12.7859 13.6306 11.5 14.7808C10.2142 15.9309 8.5367 16.5451 6.81217 16.4971C5.08763 16.4491 3.44693 15.7425 2.22703 14.5226C1.00713 13.3027 0.300625 11.662 0.252617 9.93751C0.204609 8.21298 0.818741 6.53551 1.96889 5.24963C3.11903 3.96375 4.71789 3.16706 6.43708 3.02319C8.15627 2.87931 9.8653 3.39917 11.2132 4.476V4.476ZM6.24968 6V10.5H7.74968V6H6.24968ZM3.99968 0.75H9.99968V2.25H3.99968V0.75Z" fill="#DADCDD"/>
</svg>
