<svg width="17" height="17" viewBox="0 0 17 17" fill="none" xmlns="http://www.w3.org/2000/svg">
<path d="M0.5 16.5C0.5 14.9087 1.13214 13.3826 2.25736 12.2574C3.38258 11.1321 4.9087 10.5 6.5 10.5C8.0913 10.5 9.61742 11.1321 10.7426 12.2574C11.8679 13.3826 12.5 14.9087 12.5 16.5H0.5ZM6.5 9.75C4.01375 9.75 2 7.73625 2 5.25C2 2.76375 4.01375 0.75 6.5 0.75C8.98625 0.75 11 2.76375 11 5.25C11 7.73625 8.98625 9.75 6.5 9.75ZM12.0223 11.4247C13.1695 11.7196 14.1945 12.3689 14.9512 13.2801C15.708 14.1914 16.1581 15.3181 16.2372 16.5H14C14 14.5425 13.25 12.7605 12.0223 11.4247ZM10.505 9.71775C11.1335 9.15561 11.6361 8.467 11.9799 7.69706C12.3237 6.92712 12.501 6.09322 12.5 5.25C12.5016 4.2251 12.2394 3.21703 11.7388 2.32275C12.5882 2.49344 13.3524 2.95303 13.9013 3.6234C14.4503 4.29376 14.7502 5.13354 14.75 6C14.7502 6.53435 14.6362 7.06257 14.4156 7.54926C14.195 8.03594 13.8729 8.46985 13.4709 8.82191C13.0689 9.17396 12.5963 9.43602 12.0848 9.59052C11.5733 9.74503 11.0347 9.78841 10.505 9.71775Z" fill="#DADCDD"/>
</svg>
