<svg width="18" height="16" viewBox="0 0 18 16" fill="none" xmlns="http://www.w3.org/2000/svg">
<path d="M16.5 14V15.5H1.5V14H2.25V8.9315C1.78828 8.62332 1.40978 8.20591 1.14811 7.71632C0.886445 7.22674 0.749694 6.68012 0.750001 6.125C0.750001 5.50475 0.918 4.907 1.22475 4.39775L3.25875 0.875C3.32457 0.760988 3.41925 0.666312 3.53326 0.600486C3.64727 0.53466 3.7766 0.500003 3.90825 0.5H14.0925C14.2241 0.500003 14.3535 0.53466 14.4675 0.600486C14.5815 0.666312 14.6762 0.760988 14.742 0.875L16.7685 4.3865C17.2159 5.12965 17.3597 6.01665 17.1701 6.8631C16.9804 7.70956 16.4718 8.45035 15.75 8.9315V14H16.5ZM4.34175 2L2.517 5.15975C2.33968 5.59786 2.33436 6.08677 2.5021 6.52864C2.66984 6.9705 2.99826 7.33272 3.42164 7.54279C3.84501 7.75287 4.33211 7.79531 4.78544 7.66161C5.23876 7.52792 5.62488 7.22795 5.8665 6.82175C6.11775 6.194 7.0065 6.194 7.2585 6.82175C7.39747 7.17006 7.6377 7.4687 7.94814 7.67908C8.25859 7.88946 8.62499 8.00191 9 8.00191C9.37501 8.00191 9.74141 7.88946 10.0519 7.67908C10.3623 7.4687 10.6025 7.17006 10.7415 6.82175C10.9927 6.194 11.8815 6.194 12.1335 6.82175C12.2308 7.06134 12.3767 7.2782 12.5619 7.45871C12.747 7.63921 12.9676 7.77946 13.2095 7.87064C13.4515 7.96182 13.7098 8.00195 13.968 7.98851C14.2263 7.97508 14.479 7.90837 14.7102 7.79257C14.9414 7.67677 15.1462 7.5144 15.3117 7.31565C15.4771 7.1169 15.5997 6.88607 15.6716 6.63768C15.7435 6.38929 15.7633 6.1287 15.7297 5.87229C15.6961 5.61588 15.6098 5.3692 15.4762 5.14775L13.6575 2H4.3425H4.34175Z" fill="#7D7D83"/>
</svg>
